<svg width="23" height="30" viewBox="0 0 23 30" xmlns="http://www.w3.org/2000/svg">
    <g fill="#EF533E" fill-rule="evenodd">
        <path d="M5.847 11.54c.857 0 1.5-.183 1.898-.55.428-.368.612-.95.612-1.714 0-.796-.214-1.378-.612-1.745-.398-.368-1.04-.582-1.929-.582h-2.05v6.367H5.05v-1.775h.796zM5.05 8.174h.735c.428 0 .734.092.949.245.214.153.306.429.306.796 0 .368-.092.643-.245.827-.153.183-.46.275-.888.275h-.857V8.173zM13.408 12.429c.551-.582.796-1.347.796-2.358 0-.98-.275-1.775-.826-2.326-.551-.551-1.347-.827-2.388-.827H8.939v6.368h1.99c1.102.03 1.928-.276 2.48-.857zm-.98-.858c-.306.337-.765.49-1.346.49h-.827V8.173h.735c.643 0 1.132.184 1.47.52.305.338.489.827.489 1.44-.03.612-.214 1.102-.52 1.438z" fill-rule="nonzero"/>
        <path d="M18.888 8.204V6.95h-3.98v6.367h1.286v-2.51h2.54V9.582h-2.54V8.204z"/>
        <path d="M20.571.245H2.081A1.92 1.92 0 0 0 .154 2.173v22.592a1.92 1.92 0 0 0 1.929 1.929h4.255l-.582-.582-.582-.581h-3.06a.758.758 0 0 1-.766-.766V2.173c0-.428.337-.765.765-.765h18.52c.43 0 .766.337.766.765v22.592a.758.758 0 0 1-.765.766H18l-.582.581-.581.582h3.796a1.92 1.92 0 0 0 1.928-1.929V2.173a1.994 1.994 0 0 0-1.99-1.928z"/>
        <path d="m18.092 23.082-4.01-.031v-6.612h-5.51v6.52l-4.01-.061 6.856 6.857z"/>
    </g>
</svg>
