<svg width="19" height="19" viewBox="0 0 19 19" xmlns="http://www.w3.org/2000/svg">
    <g fill="#FFF" fill-rule="nonzero">
        <path d="M9.5.251A9.249 9.249 0 1 0 18.749 9.5 9.26 9.26 0 0 0 9.5.251zm0 16.988A7.74 7.74 0 1 1 17.24 9.5a7.746 7.746 0 0 1-7.74 7.74z"/>
        <path d="m13.208 6.813-4.689 4.75L5.805 8.79A.755.755 0 0 0 4.73 9.849l3.267 3.319c.05.044.108.08.17.108.022.02.047.037.074.051.09.037.187.057.285.058a.75.75 0 0 0 .285-.058.54.54 0 0 0 .092-.06.651.651 0 0 0 .153-.1l5.228-5.292a.757.757 0 1 0-1.076-1.062z"/>
    </g>
</svg>
