<svg width="23" height="22" viewBox="0 0 23 22" xmlns="http://www.w3.org/2000/svg">
    <g transform="translate(.598 .049)" fill="none" fill-rule="evenodd">
        <ellipse fill="#ACACAC" cx="10.899" cy="10.976" rx="10.899" ry="10.976"/>
        <path d="M15.738 14.826h-9.26c-.768-.001-1.39-.636-1.392-1.419v-5.75c.001-.783.624-1.418 1.392-1.419h1.89l.165-.567a.69.69 0 0 1 .675-.542h3.8c.321.002.6.225.677.542l.004.02.151.546h1.898c.77 0 1.392.636 1.392 1.42v5.75c0 .783-.623 1.418-1.392 1.419zM6.478 6.71a.937.937 0 0 0-.928.946v5.75c0 .523.416.946.928.946h9.26a.937.937 0 0 0 .929-.946v-5.75a.937.937 0 0 0-.929-.946h-2.25l-.254-.923a.234.234 0 0 0-.226-.185h-3.8a.231.231 0 0 0-.227.185l-.267.923H6.478zm4.63 6.686c-1.19 0-2.264-.731-2.72-1.852a3.042 3.042 0 0 1 .638-3.27 2.904 2.904 0 0 1 3.209-.65 3.001 3.001 0 0 1 1.817 2.772c-.001 1.656-1.318 2.998-2.943 3zm0-5.528c-1.37 0-2.48 1.131-2.48 2.527 0 1.396 1.11 2.527 2.48 2.527 1.37 0 2.48-1.13 2.48-2.526s-1.11-2.526-2.48-2.528zm4.33-.282a.428.428 0 0 0-.395.27.442.442 0 0 0 .093.475.422.422 0 0 0 .466.094.436.436 0 0 0 .264-.403.432.432 0 0 0-.427-.436z" fill="#FFF" fill-rule="nonzero" stroke="#FFF" stroke-width=".3"/>
    </g>
</svg>
