<svg width="23" height="24" viewBox="0 0 23 24" xmlns="http://www.w3.org/2000/svg">
    <path d="M10.286.254a.508.508 0 0 0-.453.405L9.58 1.913a4.888 4.888 0 0 0-.571.238l-1.071-.707a.508.508 0 0 0-.635.072c-.385.385-.804.771-1.207 1.174a.508.508 0 0 0-.063.643l.722 1.072a5.02 5.02 0 0 0-.238.58l-1.278.277a.508.508 0 0 0-.405.5V7.42a.508.508 0 0 0 .405.492l1.278.277c.068.2.146.392.238.58l-.722 1.08a.508.508 0 0 0 .063.634c.403.403.822.79 1.207 1.175.168.17.433.2.635.071l1.079-.698c.183.09.374.17.571.238l.246 1.246c.046.24.256.413.5.413h1.683a.508.508 0 0 0 .5-.413l.246-1.246c.197-.068.388-.147.571-.238l1.08.698c.202.13.466.1.635-.071.384-.385.804-.772 1.206-1.175a.508.508 0 0 0 .063-.635l-.722-1.08c.092-.187.17-.38.238-.579l1.278-.277a.508.508 0 0 0 .405-.492V5.76a.508.508 0 0 0-.405-.5l-1.278-.277a5.018 5.018 0 0 0-.238-.58l.722-1.07a.508.508 0 0 0-.063-.644c-.402-.403-.822-.789-1.206-1.174a.508.508 0 0 0-.635-.072l-1.072.707a4.888 4.888 0 0 0-.571-.238L12.516.659a.508.508 0 0 0-.5-.405h-1.73zm.468 1.016h.841l.222 1.095c.04.19.185.341.373.389.339.09.65.23.953.405.166.095.372.089.532-.016l.952-.62c.205.2.41.393.611.588l-.635.952a.508.508 0 0 0-.024.532c.17.293.314.632.405.968a.508.508 0 0 0 .381.366l1.135.238v.84l-1.135.247a.508.508 0 0 0-.38.365 4.057 4.057 0 0 1-.406.96.508.508 0 0 0 .024.54l.627.944c-.2.196-.398.396-.603.596l-.952-.627a.508.508 0 0 0-.532-.008 3.835 3.835 0 0 1-.953.397.508.508 0 0 0-.373.389l-.222 1.103h-.841l-.222-1.103a.508.508 0 0 0-.373-.39 3.835 3.835 0 0 1-.953-.396.508.508 0 0 0-.531.008l-.953.627c-.205-.2-.402-.4-.603-.596l.627-.944c.11-.16.12-.37.024-.54a4.057 4.057 0 0 1-.405-.96.508.508 0 0 0-.38-.365l-1.136-.246v-.841l1.135-.238a.508.508 0 0 0 .381-.366c.091-.336.235-.675.405-.968a.508.508 0 0 0-.024-.532l-.635-.952c.2-.195.406-.387.611-.587l.953.619c.16.105.365.111.531.016.303-.176.614-.316.953-.405a.508.508 0 0 0 .373-.389l.222-1.095zm.42 3.278c-1.12 0-2.04.918-2.04 2.04 0 1.12.92 2.039 2.04 2.039 1.122 0 2.04-.919 2.04-2.04 0-1.12-.918-2.04-2.04-2.04zm0 1.015c.568 0 1.024.457 1.024 1.024 0 .568-.456 1.024-1.023 1.024a1.021 1.021 0 0 1-1.024-1.024c0-.567.456-1.024 1.024-1.024zm9.445 4.921c-.398 0-.758.18-1.016.445l-.008-.008-.008.016c-.011.01-.696.69-1.444 1.436-.754.753-1.542 1.536-1.778 1.794a.509.509 0 1 0 .754.682c.16-.176.986-1.002 1.738-1.754.753-.751 1.453-1.452 1.453-1.452a.508.508 0 0 0 .015-.008.391.391 0 0 1 .294-.135c.228 0 .46.219.46.571a.648.648 0 0 1-.119.381c-.001.003.002.007 0 .008-.022.027-3.06 3.672-5.023 5.969-.543.634-1.288 1.261-2.342 1.261H7.571c-.648 0-1.328.118-1.857.635L4.278 21.73a.508.508 0 1 0 .714.722l1.437-1.404c.29-.284.596-.342 1.142-.342h6.024c1.459 0 2.48-.88 3.111-1.619 1.98-2.315 5.048-6 5.048-6a1.663 1.663 0 0 0 .341-1.016c0-.843-.634-1.587-1.476-1.587zM7.222 14.27c-1.077 0-2.188.151-3.08.88L.438 18.184a.51.51 0 1 0 .65.785l3.699-3.031c.618-.506 1.452-.651 2.436-.651h7.476c.087.25.077.555-.087.857-.205.38-.553.588-.722.571a.508.508 0 0 0-.048-.008H8.992a.508.508 0 1 0 0 1.016H13.841v-.008c.744.044 1.334-.48 1.667-1.095.341-.63.452-1.478-.056-2.143a.508.508 0 0 0-.404-.206H7.222z" fill="#FFF" fill-rule="nonzero"/>
</svg>
