<?xml version="1.0" encoding="UTF-8"?>
<svg width="17px" height="22px" viewBox="0 0 17 22" version="1.1" xmlns="http://www.w3.org/2000/svg" xmlns:xlink="http://www.w3.org/1999/xlink">
    <title>879D9121-53EF-4530-9B6F-942DC7B138D4</title>
    <g id="Page-1" stroke="none" stroke-width="1" fill="none" fill-rule="evenodd">
        <g id="9-Catalog" transform="translate(-1358.000000, -205.000000)" fill="#EF533E">
            <g id="Group" transform="translate(1358.000000, 205.000000)">
                <path d="M4.2877551,8.46326531 C4.91632653,8.46326531 5.3877551,8.32857143 5.67959184,8.05918367 C5.99387755,7.78979592 6.12857143,7.36326531 6.12857143,6.80204082 C6.12857143,6.21836735 5.97142857,5.79183673 5.67959184,5.52244898 C5.3877551,5.25306122 4.91632653,5.09591837 4.26530612,5.09591837 L2.76122449,5.09591837 L2.76122449,9.76530612 L3.70408163,9.76530612 L3.70408163,8.46326531 L4.2877551,8.46326531 L4.2877551,8.46326531 Z M3.70408163,5.99387755 L4.24285714,5.99387755 C4.55714286,5.99387755 4.78163265,6.06122449 4.93877551,6.17346939 C5.09591837,6.28571429 5.16326531,6.4877551 5.16326531,6.75714286 C5.16326531,7.02653061 5.09591837,7.22857143 4.98367347,7.36326531 C4.87142857,7.49795918 4.64693878,7.56530612 4.33265306,7.56530612 L3.70408163,7.56530612 L3.70408163,5.99387755 L3.70408163,5.99387755 Z" id="Shape" fill-rule="nonzero"></path>
                <path d="M9.83265306,9.11428571 C10.2367347,8.6877551 10.4163265,8.12653061 10.4163265,7.38571429 C10.4163265,6.66734694 10.2142857,6.08367347 9.81020408,5.67959184 C9.40612245,5.2755102 8.82244898,5.07346939 8.05918367,5.07346939 L6.55510204,5.07346939 L6.55510204,9.74285714 L8.01428571,9.74285714 C8.82244898,9.76530612 9.42857143,9.54081633 9.83265306,9.11428571 Z M9.11428571,8.48571429 C8.88979592,8.73265306 8.55306122,8.84489796 8.12653061,8.84489796 L7.52040816,8.84489796 L7.52040816,5.99387755 L8.05918367,5.99387755 C8.53061224,5.99387755 8.88979592,6.12857143 9.13673469,6.3755102 C9.36122449,6.62244898 9.49591837,6.98163265 9.49591837,7.43061224 C9.47346939,7.87959184 9.33877551,8.23877551 9.11428571,8.48571429 Z" id="Shape" fill-rule="nonzero"></path>
                <polygon id="Path" points="13.8510204 6.01632653 13.8510204 5.09591837 10.9326531 5.09591837 10.9326531 9.76530612 11.8755102 9.76530612 11.8755102 7.9244898 13.7387755 7.9244898 13.7387755 7.02653061 11.8755102 7.02653061 11.8755102 6.01632653"></polygon>
                <path d="M15.0857143,0.179591837 L1.52653061,0.179591837 C0.740816327,0.179591837 0.112244898,0.808163265 0.112244898,1.59387755 L0.112244898,18.1612245 C0.112244898,18.9469388 0.740816327,19.5755102 1.52653061,19.5755102 L4.64693878,19.5755102 L4.22040816,19.1489796 L3.79387755,18.722449 L1.54897959,18.722449 C1.23469388,18.722449 0.987755102,18.4755102 0.987755102,18.1612245 L0.987755102,1.59387755 C0.987755102,1.27959184 1.23469388,1.03265306 1.54897959,1.03265306 L15.1306122,1.03265306 C15.444898,1.03265306 15.6918367,1.27959184 15.6918367,1.59387755 L15.6918367,18.1612245 C15.6918367,18.4755102 15.444898,18.722449 15.1306122,18.722449 L13.2,18.722449 L12.7734694,19.1489796 L12.3469388,19.5755102 L15.1306122,19.5755102 C15.9163265,19.5755102 16.544898,18.9469388 16.544898,18.1612245 L16.544898,1.59387755 C16.522449,0.808163265 15.8714286,0.179591837 15.0857143,0.179591837 Z" id="Path"></path>
                <polygon id="Path" points="13.2673469 16.9265306 10.3265306 16.9040816 10.3265306 12.055102 6.28571429 12.055102 6.28571429 16.8367347 3.34489796 16.7918367 8.37346939 21.8204082"></polygon>
            </g>
        </g>
    </g>
</svg>