<svg width="17" height="22" viewBox="0 0 17 22" xmlns="http://www.w3.org/2000/svg">
    <g fill="#EF533E" fill-rule="evenodd">
        <path d="M4.288 8.463c.628 0 1.1-.134 1.392-.404.314-.27.449-.696.449-1.257 0-.584-.158-1.01-.45-1.28-.291-.269-.763-.426-1.414-.426H2.761v4.67h.943V8.462h.584zm-.584-2.47h.539c.314 0 .539.068.696.18.157.113.224.315.224.584 0 .27-.067.472-.18.606-.112.135-.336.202-.65.202h-.629V5.994zM9.833 9.114c.404-.426.583-.987.583-1.728 0-.719-.202-1.302-.606-1.706-.404-.404-.988-.607-1.75-.607H6.554v4.67h1.46c.807.022 1.414-.202 1.818-.629zm-.719-.628c-.224.247-.56.359-.987.359H7.52V5.994h.54c.47 0 .83.135 1.077.382.224.246.359.606.359 1.055-.023.449-.157.808-.382 1.055z" fill-rule="nonzero"/>
        <path d="M13.851 6.016v-.92h-2.918v4.67h.943V7.923h1.863v-.897h-1.863v-1.01z"/>
        <path d="M15.086.18H1.526C.742.18.113.808.113 1.594V18.16c0 .786.629 1.415 1.415 1.415h3.12l-.427-.427-.426-.427H1.549a.556.556 0 0 1-.561-.56V1.593c0-.314.247-.561.561-.561h13.582c.314 0 .56.247.56.56v16.568a.556.556 0 0 1-.56.561H13.2l-.427.427-.426.427h2.784c.785 0 1.414-.63 1.414-1.415V1.594A1.462 1.462 0 0 0 15.085.18z"/>
        <path d="m13.267 16.927-2.94-.023v-4.849H6.286v4.782l-2.941-.045 5.028 5.028z"/>
    </g>
</svg>
