<svg width="13" height="14" viewBox="0 0 13 14" xmlns="http://www.w3.org/2000/svg">
    <g fill="#EE4735" fill-rule="evenodd">
        <path d="M10.84 2.554v9.619c0 .063-.005.127-.013.19.006-.04.01-.078.017-.118a1.393 1.393 0 0 1-.093.343l.044-.106a1.395 1.395 0 0 1-.118.223c-.004.007-.037.063-.044.063.009 0 .081-.1.022-.03a1.255 1.255 0 0 1-.176.177c-.028.024-.084.052.029-.022-.02.012-.037.026-.054.038-.073.049-.15.09-.23.124l.106-.044c-.11.045-.225.076-.343.092l.118-.016c-.268.034-.548.012-.817.012H3.863c-.264 0-.527.002-.79 0-.063 0-.124-.004-.186-.012l.118.016a1.393 1.393 0 0 1-.343-.092l.105.044a1.395 1.395 0 0 1-.222-.118c-.007-.004-.063-.037-.063-.044 0 .009.1.08.03.022a1.255 1.255 0 0 1-.177-.177c-.024-.028-.052-.084.022.03-.012-.02-.027-.037-.039-.055a1.382 1.382 0 0 1-.123-.23l.044.107a1.393 1.393 0 0 1-.093-.343l.016.117c-.016-.132-.011-.267-.011-.401v-8.2c0-.396.006-.792 0-1.188v-.018c0-.231-.203-.452-.442-.442a.449.449 0 0 0-.442.442v9.136c0 .21-.014.424.008.633.03.293.112.579.277.828.157.24.366.446.615.59.29.168.617.243.95.243H9.883c.341 0 .683-.083.974-.264.513-.316.828-.861.864-1.459.005-.069.003-.138.003-.207V2.556c0-.231-.203-.452-.441-.442a.446.446 0 0 0-.445.44z"/>
        <path d="M12.503 2.039H.973c-.156 0-.314-.002-.471 0h-.02c-.232 0-.453.203-.442.442.01.24.194.441.441.441H12.011c.156 0 .314.002.471 0h.02c.232 0 .453-.203.442-.441a.45.45 0 0 0-.441-.442z"/>
        <path d="M10.116 2.48v-.918c0-.17 0-.33-.03-.5C10.02.71 9.783.398 9.484.207c-.272-.175-.579-.203-.89-.203H4.53c-.195 0-.382-.004-.574.025-.363.057-.675.29-.876.589a1.358 1.358 0 0 0-.214.764V2.48c0 .23.203.451.442.441a.449.449 0 0 0 .441-.441v-.614c0-.214-.017-.436.01-.648-.007.04-.011.078-.017.118.012-.078.032-.155.062-.228l-.044.106a.91.91 0 0 1 .078-.145l.022-.03c.025-.04-.066.077-.034.043.02-.02.037-.042.057-.063.018-.017.039-.034.056-.051.044-.042-.044.035-.044.034 0-.003.028-.021.031-.023A.956.956 0 0 1 4.08.898l-.106.044c.074-.03.149-.05.228-.062-.04.006-.078.01-.117.017.18-.023.368-.01.549-.01h3.612c.215 0 .44-.017.654.01C8.859.89 8.82.887 8.78.88c.078.012.155.033.228.062L8.903.898a.91.91 0 0 1 .176.1c.04.025-.078-.066-.045-.034.021.02.043.037.064.058.017.017.034.038.051.056.041.044-.035-.045-.034-.045.003 0 .02.028.022.031a.956.956 0 0 1 .083.153l-.044-.106c.03.074.05.15.062.229-.006-.04-.01-.078-.017-.118.027.212.01.434.01.648v.613c0 .232.202.452.44.442.244-.013.445-.197.445-.444zM3.41 4.409V10.789c0 .296-.005.592 0 .886v.014c0 .23.204.452.442.441a.449.449 0 0 0 .442-.441V5.309c0-.296.006-.592 0-.887V4.41c0-.231-.203-.452-.442-.442a.448.448 0 0 0-.441.442zM6.934 11.686V5.306c0-.296.006-.592 0-.887v-.013c0-.231-.204-.452-.442-.442a.449.449 0 0 0-.442.442V10.786c0 .296-.006.592 0 .887v.013c0 .23.204.452.442.441a.449.449 0 0 0 .442-.441zM9.573 11.686V5.306c0-.296.006-.592 0-.887v-.013c0-.231-.203-.452-.441-.442a.449.449 0 0 0-.442.442V10.786c0 .296-.006.592 0 .887v.013c0 .23.203.452.442.441a.449.449 0 0 0 .441-.441z"/>
    </g>
</svg>
